<svg width="33" height="32" viewBox="0 0 33 32" fill="none" xmlns="http://www.w3.org/2000/svg">
<mask id="path-1-outside-1_4462_496" maskUnits="userSpaceOnUse" x="3" y="2.5" width="27" height="27" fill="black">
<rect fill="white" x="3" y="2.5" width="27" height="27"/>
<path fill-rule="evenodd" clip-rule="evenodd" d="M12.3667 4.5C11.5383 4.5 10.8667 5.17157 10.8667 6V7.89998H16.2334H21.7334V6C21.7334 5.17157 21.0618 4.5 20.2334 4.5H12.3667ZM22.7334 7.89998V6C22.7334 4.61929 21.6141 3.5 20.2334 3.5H12.3667C10.986 3.5 9.8667 4.61929 9.8667 6V7.89998H7.5C5.567 7.89998 4 9.46699 4 11.4V20.4V25C4 26.933 5.567 28.5 7.5 28.5H25.5C27.433 28.5 29 26.933 29 25V20.4V11.4C29 9.46699 27.433 7.89998 25.5 7.89998H22.7334ZM7.5 8.89998C6.11929 8.89998 5 10.0193 5 11.4V19.9H10.3667V19.2C10.3667 18.7582 10.7249 18.4 11.1667 18.4C11.6086 18.4 11.9667 18.7582 11.9667 19.2V19.9H16.2334H21.0334V19.2C21.0334 18.7582 21.3916 18.4 21.8334 18.4C22.2752 18.4 22.6334 18.7582 22.6334 19.2V19.9H28V11.4C28 10.0193 26.8807 8.89998 25.5 8.89998H22.2334H16.2334H10.3667H7.5ZM21.0334 20.9V21.3333C21.0334 21.7751 21.3916 22.1333 21.8334 22.1333C22.2752 22.1333 22.6334 21.7751 22.6334 21.3333V20.9H28V25C28 26.3807 26.8807 27.5 25.5 27.5H7.5C6.11929 27.5 5 26.3807 5 25V20.9H10.3667V21.3333C10.3667 21.7751 10.7249 22.1333 11.1667 22.1333C11.6086 22.1333 11.9667 21.7751 11.9667 21.3333V20.9H16.2334H21.0334Z"/>
</mask>
<path fill-rule="evenodd" clip-rule="evenodd" d="M12.3667 4.5C11.5383 4.5 10.8667 5.17157 10.8667 6V7.89998H16.2334H21.7334V6C21.7334 5.17157 21.0618 4.5 20.2334 4.5H12.3667ZM22.7334 7.89998V6C22.7334 4.61929 21.6141 3.5 20.2334 3.5H12.3667C10.986 3.5 9.8667 4.61929 9.8667 6V7.89998H7.5C5.567 7.89998 4 9.46699 4 11.4V20.4V25C4 26.933 5.567 28.5 7.5 28.5H25.5C27.433 28.5 29 26.933 29 25V20.4V11.4C29 9.46699 27.433 7.89998 25.5 7.89998H22.7334ZM7.5 8.89998C6.11929 8.89998 5 10.0193 5 11.4V19.9H10.3667V19.2C10.3667 18.7582 10.7249 18.4 11.1667 18.4C11.6086 18.4 11.9667 18.7582 11.9667 19.2V19.9H16.2334H21.0334V19.2C21.0334 18.7582 21.3916 18.4 21.8334 18.4C22.2752 18.4 22.6334 18.7582 22.6334 19.2V19.9H28V11.4C28 10.0193 26.8807 8.89998 25.5 8.89998H22.2334H16.2334H10.3667H7.5ZM21.0334 20.9V21.3333C21.0334 21.7751 21.3916 22.1333 21.8334 22.1333C22.2752 22.1333 22.6334 21.7751 22.6334 21.3333V20.9H28V25C28 26.3807 26.8807 27.5 25.5 27.5H7.5C6.11929 27.5 5 26.3807 5 25V20.9H10.3667V21.3333C10.3667 21.7751 10.7249 22.1333 11.1667 22.1333C11.6086 22.1333 11.9667 21.7751 11.9667 21.3333V20.9H16.2334H21.0334Z" fill="#FFC107"/>
<path d="M10.8667 7.89998H10.3667C10.3667 8.17613 10.5906 8.39998 10.8667 8.39998V7.89998ZM21.7334 7.89998V8.39998C22.0095 8.39998 22.2334 8.17613 22.2334 7.89998H21.7334ZM22.7334 7.89998H22.2334C22.2334 8.17613 22.4573 8.39998 22.7334 8.39998V7.89998ZM9.8667 7.89998V8.39998C10.1428 8.39998 10.3667 8.17613 10.3667 7.89998H9.8667ZM5 19.9H4.5C4.5 20.1761 4.72386 20.4 5 20.4V19.9ZM10.3667 19.9V20.4C10.6429 20.4 10.8667 20.1761 10.8667 19.9H10.3667ZM11.9667 19.9H11.4667C11.4667 20.1761 11.6906 20.4 11.9667 20.4V19.9ZM21.0334 19.9V20.4C21.3095 20.4 21.5334 20.1761 21.5334 19.9H21.0334ZM22.6334 19.9H22.1334C22.1334 20.1761 22.3573 20.4 22.6334 20.4V19.9ZM28 19.9V20.4C28.2761 20.4 28.5 20.1761 28.5 19.9H28ZM21.0334 20.9H21.5334C21.5334 20.6238 21.3095 20.4 21.0334 20.4V20.9ZM22.6334 20.9V20.4C22.3573 20.4 22.1334 20.6238 22.1334 20.9H22.6334ZM28 20.9H28.5C28.5 20.6238 28.2761 20.4 28 20.4V20.9ZM5 20.9V20.4C4.72386 20.4 4.5 20.6238 4.5 20.9H5ZM10.3667 20.9H10.8667C10.8667 20.6238 10.6429 20.4 10.3667 20.4V20.9ZM11.9667 20.9V20.4C11.6906 20.4 11.4667 20.6238 11.4667 20.9H11.9667ZM11.3667 6C11.3667 5.44772 11.8144 5 12.3667 5V4C11.2621 4 10.3667 4.89543 10.3667 6H11.3667ZM11.3667 7.89998V6H10.3667V7.89998H11.3667ZM16.2334 7.39998H10.8667V8.39998H16.2334V7.39998ZM21.7334 7.39998H16.2334V8.39998H21.7334V7.39998ZM21.2334 6V7.89998H22.2334V6H21.2334ZM20.2334 5C20.7857 5 21.2334 5.44772 21.2334 6H22.2334C22.2334 4.89543 21.338 4 20.2334 4V5ZM12.3667 5H20.2334V4H12.3667V5ZM22.2334 6V7.89998H23.2334V6H22.2334ZM20.2334 4C21.338 4 22.2334 4.89543 22.2334 6H23.2334C23.2334 4.34315 21.8903 3 20.2334 3V4ZM12.3667 4H20.2334V3H12.3667V4ZM10.3667 6C10.3667 4.89543 11.2621 4 12.3667 4V3C10.7098 3 9.3667 4.34314 9.3667 6H10.3667ZM10.3667 7.89998V6H9.3667V7.89998H10.3667ZM7.5 8.39998H9.8667V7.39998H7.5V8.39998ZM4.5 11.4C4.5 9.74313 5.84315 8.39998 7.5 8.39998V7.39998C5.29086 7.39998 3.5 9.19085 3.5 11.4H4.5ZM4.5 20.4V11.4H3.5V20.4H4.5ZM4.5 25V20.4H3.5V25H4.5ZM7.5 28C5.84315 28 4.5 26.6569 4.5 25H3.5C3.5 27.2091 5.29086 29 7.5 29V28ZM25.5 28H7.5V29H25.5V28ZM28.5 25C28.5 26.6569 27.1569 28 25.5 28V29C27.7091 29 29.5 27.2091 29.5 25H28.5ZM28.5 20.4V25H29.5V20.4H28.5ZM28.5 11.4V20.4H29.5V11.4H28.5ZM25.5 8.39998C27.1569 8.39998 28.5 9.74313 28.5 11.4H29.5C29.5 9.19085 27.7091 7.39998 25.5 7.39998V8.39998ZM22.7334 8.39998H25.5V7.39998H22.7334V8.39998ZM5.5 11.4C5.5 10.2954 6.39543 9.39998 7.5 9.39998V8.39998C5.84315 8.39998 4.5 9.74313 4.5 11.4H5.5ZM5.5 19.9V11.4H4.5V19.9H5.5ZM10.3667 19.4H5V20.4H10.3667V19.4ZM9.86673 19.2V19.9H10.8667V19.2H9.86673ZM11.1667 17.9C10.4488 17.9 9.86673 18.482 9.86673 19.2H10.8667C10.8667 19.0343 11.001 18.9 11.1667 18.9V17.9ZM12.4667 19.2C12.4667 18.482 11.8847 17.9 11.1667 17.9V18.9C11.3324 18.9 11.4667 19.0343 11.4667 19.2H12.4667ZM12.4667 19.9V19.2H11.4667V19.9H12.4667ZM16.2334 19.4H11.9667V20.4H16.2334V19.4ZM21.0334 19.4H16.2334V20.4H21.0334V19.4ZM21.5334 19.9V19.2H20.5334V19.9H21.5334ZM21.5334 19.2C21.5334 19.0343 21.6677 18.9 21.8334 18.9V17.9C21.1154 17.9 20.5334 18.482 20.5334 19.2H21.5334ZM21.8334 18.9C21.9991 18.9 22.1334 19.0343 22.1334 19.2H23.1334C23.1334 18.482 22.5514 17.9 21.8334 17.9V18.9ZM22.1334 19.2V19.9H23.1334V19.2H22.1334ZM28 19.4H22.6334V20.4H28V19.4ZM27.5 11.4V19.9H28.5V11.4H27.5ZM25.5 9.39998C26.6046 9.39998 27.5 10.2954 27.5 11.4H28.5C28.5 9.74313 27.1569 8.39998 25.5 8.39998V9.39998ZM22.2334 9.39998H25.5V8.39998H22.2334V9.39998ZM16.2334 9.39998H22.2334V8.39998H16.2334V9.39998ZM10.3667 9.39998H16.2334V8.39998H10.3667V9.39998ZM7.5 9.39998H10.3667V8.39998H7.5V9.39998ZM21.5334 21.3333V20.9H20.5334V21.3333H21.5334ZM21.8334 21.6333C21.6677 21.6333 21.5334 21.499 21.5334 21.3333H20.5334C20.5334 22.0513 21.1154 22.6333 21.8334 22.6333V21.6333ZM22.1334 21.3333C22.1334 21.499 21.9991 21.6333 21.8334 21.6333V22.6333C22.5514 22.6333 23.1334 22.0513 23.1334 21.3333H22.1334ZM22.1334 20.9V21.3333H23.1334V20.9H22.1334ZM28 20.4H22.6334V21.4H28V20.4ZM28.5 25V20.9H27.5V25H28.5ZM25.5 28C27.1569 28 28.5 26.6569 28.5 25H27.5C27.5 26.1046 26.6046 27 25.5 27V28ZM7.5 28H25.5V27H7.5V28ZM4.5 25C4.5 26.6569 5.84315 28 7.5 28V27C6.39543 27 5.5 26.1046 5.5 25H4.5ZM4.5 20.9V25H5.5V20.9H4.5ZM10.3667 20.4H5V21.4H10.3667V20.4ZM10.8667 21.3333V20.9H9.86673V21.3333H10.8667ZM11.1667 21.6333C11.001 21.6333 10.8667 21.499 10.8667 21.3333H9.86673C9.86673 22.0513 10.4488 22.6333 11.1667 22.6333V21.6333ZM11.4667 21.3333C11.4667 21.499 11.3324 21.6333 11.1667 21.6333V22.6333C11.8847 22.6333 12.4667 22.0513 12.4667 21.3333H11.4667ZM11.4667 20.9V21.3333H12.4667V20.9H11.4667ZM16.2334 20.4H11.9667V21.4H16.2334V20.4ZM21.0334 20.4H16.2334V21.4H21.0334V20.4Z" fill="#FFC107" mask="url(#path-1-outside-1_4462_496)"/>
</svg>
