<svg width="24" height="24" viewBox="0 0 24 24" fill="none" xmlns="http://www.w3.org/2000/svg">
<mask id="path-1-outside-1_3840_10079" maskUnits="userSpaceOnUse" x="1.5" y="1.5" width="21" height="21" fill="black">
<rect fill="white" x="1.5" y="1.5" width="21" height="21"/>
<path fill-rule="evenodd" clip-rule="evenodd" d="M9.40002 3.5C8.5716 3.5 7.90002 4.17157 7.90002 5V5.79999H11.8H15.8V5C15.8 4.17157 15.1285 3.5 14.3 3.5H9.40002ZM16.8 5.79999V5C16.8 3.61929 15.6808 2.5 14.3 2.5H9.40002C8.01931 2.5 6.90002 3.61929 6.90002 5V5.79999H6C4.067 5.79999 2.5 7.36699 2.5 9.29999V15.3V18C2.5 19.933 4.067 21.5 6 21.5H18C19.933 21.5 21.5 19.933 21.5 18V15.3V9.29999C21.5 7.36699 19.933 5.79999 18 5.79999H16.8ZM6 6.79999C4.61929 6.79999 3.5 7.91928 3.5 9.29999V14.8H7.20005V14.4C7.20005 13.9582 7.55822 13.6 8.00005 13.6C8.44188 13.6 8.80005 13.9582 8.80005 14.4V14.8H11.8H15.2V14.4C15.2 13.9582 15.5582 13.6 16 13.6C16.4419 13.6 16.8 13.9582 16.8 14.4V14.8H20.5V9.29999C20.5 7.91928 19.3807 6.79999 18 6.79999H16.3H11.8H7.40002H6ZM15.2 15.8V16C15.2 16.4418 15.5582 16.8 16 16.8C16.4419 16.8 16.8 16.4418 16.8 16V15.8H20.5V18C20.5 19.3807 19.3807 20.5 18 20.5H6C4.61929 20.5 3.5 19.3807 3.5 18V15.8H7.20005V16C7.20005 16.4418 7.55822 16.8 8.00005 16.8C8.44188 16.8 8.80005 16.4418 8.80005 16V15.8H11.8H15.2Z"/>
</mask>
<path fill-rule="evenodd" clip-rule="evenodd" d="M9.40002 3.5C8.5716 3.5 7.90002 4.17157 7.90002 5V5.79999H11.8H15.8V5C15.8 4.17157 15.1285 3.5 14.3 3.5H9.40002ZM16.8 5.79999V5C16.8 3.61929 15.6808 2.5 14.3 2.5H9.40002C8.01931 2.5 6.90002 3.61929 6.90002 5V5.79999H6C4.067 5.79999 2.5 7.36699 2.5 9.29999V15.3V18C2.5 19.933 4.067 21.5 6 21.5H18C19.933 21.5 21.5 19.933 21.5 18V15.3V9.29999C21.5 7.36699 19.933 5.79999 18 5.79999H16.8ZM6 6.79999C4.61929 6.79999 3.5 7.91928 3.5 9.29999V14.8H7.20005V14.4C7.20005 13.9582 7.55822 13.6 8.00005 13.6C8.44188 13.6 8.80005 13.9582 8.80005 14.4V14.8H11.8H15.2V14.4C15.2 13.9582 15.5582 13.6 16 13.6C16.4419 13.6 16.8 13.9582 16.8 14.4V14.8H20.5V9.29999C20.5 7.91928 19.3807 6.79999 18 6.79999H16.3H11.8H7.40002H6ZM15.2 15.8V16C15.2 16.4418 15.5582 16.8 16 16.8C16.4419 16.8 16.8 16.4418 16.8 16V15.8H20.5V18C20.5 19.3807 19.3807 20.5 18 20.5H6C4.61929 20.5 3.5 19.3807 3.5 18V15.8H7.20005V16C7.20005 16.4418 7.55822 16.8 8.00005 16.8C8.44188 16.8 8.80005 16.4418 8.80005 16V15.8H11.8H15.2Z" fill="#FFC107"/>
<path d="M7.90002 5.79999H7.40002C7.40002 6.07613 7.62388 6.29999 7.90002 6.29999V5.79999ZM15.8 5.79999V6.29999C16.0762 6.29999 16.3 6.07613 16.3 5.79999H15.8ZM16.8 5.79999H16.3C16.3 6.07613 16.5239 6.29999 16.8 6.29999V5.79999ZM6.90002 5.79999V6.29999C7.17617 6.29999 7.40002 6.07613 7.40002 5.79999H6.90002ZM3.5 14.8H3C3 15.0761 3.22386 15.3 3.5 15.3V14.8ZM7.20005 14.8V15.3C7.47619 15.3 7.70005 15.0761 7.70005 14.8H7.20005ZM8.80005 14.8H8.30005C8.30005 15.0761 8.52391 15.3 8.80005 15.3V14.8ZM15.2 14.8V15.3C15.4762 15.3 15.7 15.0761 15.7 14.8H15.2ZM16.8 14.8H16.3C16.3 15.0761 16.5239 15.3 16.8 15.3V14.8ZM20.5 14.8V15.3C20.7761 15.3 21 15.0761 21 14.8H20.5ZM15.2 15.8H15.7C15.7 15.5238 15.4762 15.3 15.2 15.3V15.8ZM16.8 15.8V15.3C16.5239 15.3 16.3 15.5238 16.3 15.8H16.8ZM20.5 15.8H21C21 15.5238 20.7761 15.3 20.5 15.3V15.8ZM3.5 15.8V15.3C3.22386 15.3 3 15.5238 3 15.8H3.5ZM7.20005 15.8H7.70005C7.70005 15.5238 7.47619 15.3 7.20005 15.3V15.8ZM8.80005 15.8V15.3C8.52391 15.3 8.30005 15.5238 8.30005 15.8H8.80005ZM8.40002 5C8.40002 4.44772 8.84774 4 9.40002 4V3C8.29545 3 7.40002 3.89543 7.40002 5H8.40002ZM8.40002 5.79999V5H7.40002V5.79999H8.40002ZM11.8 5.29999H7.90002V6.29999H11.8V5.29999ZM15.8 5.29999H11.8V6.29999H15.8V5.29999ZM15.3 5V5.79999H16.3V5H15.3ZM14.3 4C14.8523 4 15.3 4.44772 15.3 5H16.3C16.3 3.89543 15.4046 3 14.3 3V4ZM9.40002 4H14.3V3H9.40002V4ZM16.3 5V5.79999H17.3V5H16.3ZM14.3 3C15.4046 3 16.3 3.89543 16.3 5H17.3C17.3 3.34315 15.9569 2 14.3 2V3ZM9.40002 3H14.3V2H9.40002V3ZM7.40002 5C7.40002 3.89543 8.29545 3 9.40002 3V2C7.74317 2 6.40002 3.34315 6.40002 5H7.40002ZM7.40002 5.79999V5H6.40002V5.79999H7.40002ZM6 6.29999H6.90002V5.29999H6V6.29999ZM3 9.29999C3 7.64313 4.34315 6.29999 6 6.29999V5.29999C3.79086 5.29999 2 7.09085 2 9.29999H3ZM3 15.3V9.29999H2V15.3H3ZM3 18V15.3H2V18H3ZM6 21C4.34315 21 3 19.6569 3 18H2C2 20.2091 3.79086 22 6 22V21ZM18 21H6V22H18V21ZM21 18C21 19.6569 19.6569 21 18 21V22C20.2091 22 22 20.2091 22 18H21ZM21 15.3V18H22V15.3H21ZM21 9.29999V15.3H22V9.29999H21ZM18 6.29999C19.6569 6.29999 21 7.64313 21 9.29999H22C22 7.09085 20.2091 5.29999 18 5.29999V6.29999ZM16.8 6.29999H18V5.29999H16.8V6.29999ZM4 9.29999C4 8.19542 4.89543 7.29999 6 7.29999V6.29999C4.34315 6.29999 3 7.64313 3 9.29999H4ZM4 14.8V9.29999H3V14.8H4ZM7.20005 14.3H3.5V15.3H7.20005V14.3ZM6.70005 14.4V14.8H7.70005V14.4H6.70005ZM8.00005 13.1C7.28208 13.1 6.70005 13.682 6.70005 14.4H7.70005C7.70005 14.2343 7.83436 14.1 8.00005 14.1V13.1ZM9.30005 14.4C9.30005 13.682 8.71802 13.1 8.00005 13.1V14.1C8.16573 14.1 8.30005 14.2343 8.30005 14.4H9.30005ZM9.30005 14.8V14.4H8.30005V14.8H9.30005ZM11.8 14.3H8.80005V15.3H11.8V14.3ZM15.2 14.3H11.8V15.3H15.2V14.3ZM15.7 14.8V14.4H14.7V14.8H15.7ZM15.7 14.4C15.7 14.2343 15.8344 14.1 16 14.1V13.1C15.2821 13.1 14.7 13.682 14.7 14.4H15.7ZM16 14.1C16.1657 14.1 16.3 14.2343 16.3 14.4H17.3C17.3 13.682 16.718 13.1 16 13.1V14.1ZM16.3 14.4V14.8H17.3V14.4H16.3ZM20.5 14.3H16.8V15.3H20.5V14.3ZM20 9.29999V14.8H21V9.29999H20ZM18 7.29999C19.1046 7.29999 20 8.19542 20 9.29999H21C21 7.64313 19.6569 6.29999 18 6.29999V7.29999ZM16.3 7.29999H18V6.29999H16.3V7.29999ZM11.8 7.29999H16.3V6.29999H11.8V7.29999ZM7.40002 7.29999H11.8V6.29999H7.40002V7.29999ZM6 7.29999H7.40002V6.29999H6V7.29999ZM15.7 16V15.8H14.7V16H15.7ZM16 16.3C15.8344 16.3 15.7 16.1657 15.7 16H14.7C14.7 16.718 15.2821 17.3 16 17.3V16.3ZM16.3 16C16.3 16.1657 16.1657 16.3 16 16.3V17.3C16.718 17.3 17.3 16.718 17.3 16H16.3ZM16.3 15.8V16H17.3V15.8H16.3ZM20.5 15.3H16.8V16.3H20.5V15.3ZM21 18V15.8H20V18H21ZM18 21C19.6569 21 21 19.6569 21 18H20C20 19.1046 19.1046 20 18 20V21ZM6 21H18V20H6V21ZM3 18C3 19.6569 4.34315 21 6 21V20C4.89543 20 4 19.1046 4 18H3ZM3 15.8V18H4V15.8H3ZM7.20005 15.3H3.5V16.3H7.20005V15.3ZM7.70005 16V15.8H6.70005V16H7.70005ZM8.00005 16.3C7.83436 16.3 7.70005 16.1657 7.70005 16H6.70005C6.70005 16.718 7.28208 17.3 8.00005 17.3V16.3ZM8.30005 16C8.30005 16.1657 8.16573 16.3 8.00005 16.3V17.3C8.71802 17.3 9.30005 16.718 9.30005 16H8.30005ZM8.30005 15.8V16H9.30005V15.8H8.30005ZM11.8 15.3H8.80005V16.3H11.8V15.3ZM15.2 15.3H11.8V16.3H15.2V15.3Z" fill="#FFC107" mask="url(#path-1-outside-1_3840_10079)"/>
</svg>
