<svg width="16" height="16" viewBox="0 0 16 16" fill="none" xmlns="http://www.w3.org/2000/svg">
<path d="M12.8373 3.16272C12.6203 2.94576 12.2686 2.94576 12.0516 3.16272L8 7.21467L3.94839 3.16272C3.73143 2.94576 3.37968 2.94576 3.16272 3.16272C2.96022 3.36521 2.94672 3.68513 3.12222 3.90328L3.16272 3.94839L7.21467 8L3.16272 12.0516L3.12222 12.0967C2.94672 12.3149 2.96022 12.6348 3.16272 12.8373C3.37968 13.0542 3.73143 13.0542 3.94839 12.8373L8 8.78533L12.0516 12.8373C12.2686 13.0542 12.6203 13.0542 12.8373 12.8373C13.0398 12.6348 13.0533 12.3149 12.8778 12.0967L12.8373 12.0516L8.78533 8L12.8373 3.94839L12.8778 3.90328C13.0533 3.68513 13.0398 3.36521 12.8373 3.16272Z" fill="white"/>
</svg>
