<svg width="24" height="24" viewBox="0 0 24 24" fill="none" xmlns="http://www.w3.org/2000/svg">
<path d="M19.2559 4.74408C18.9305 4.41864 18.4028 4.41864 18.0774 4.74408L12 10.822L5.92259 4.74408C5.59715 4.41864 5.06951 4.41864 4.74408 4.74408C4.44034 5.04782 4.42009 5.5277 4.68333 5.85493L4.74408 5.92259L10.822 12L4.74408 18.0774L4.68333 18.1451C4.42009 18.4723 4.44034 18.9522 4.74408 19.2559C5.06951 19.5814 5.59715 19.5814 5.92259 19.2559L12 13.178L18.0774 19.2559C18.4028 19.5814 18.9305 19.5814 19.2559 19.2559C19.5597 18.9522 19.5799 18.4723 19.3167 18.1451L19.2559 18.0774L13.178 12L19.2559 5.92259L19.3167 5.85493C19.5799 5.5277 19.5597 5.04782 19.2559 4.74408Z" fill="#99A2AD"/>
</svg>
