<svg width="56" height="56" viewBox="0 0 56 56" fill="none" xmlns="http://www.w3.org/2000/svg">
<path d="M51.3415 27.8845L37.8105 23.0213L32.1545 15.9198C31.6627 15.3185 31.0432 14.8342 30.3409 14.5022C29.6387 14.1701 28.8713 13.9986 28.0945 14H14.1015C13.2457 13.9997 12.4028 14.2088 11.6463 14.609C10.8899 15.0092 10.2428 15.5884 9.7615 16.296L5.0155 23.2663C4.02702 24.7169 3.49887 26.4319 3.5 28.1873V42C3.5 42.4641 3.68438 42.9093 4.01256 43.2374C4.34075 43.5656 4.78587 43.75 5.25 43.75H8.9985C9.37919 45.2519 10.2498 46.584 11.4726 47.5356C12.6954 48.4871 14.2006 49.0037 15.75 49.0037C17.2994 49.0037 18.8046 48.4871 20.0274 47.5356C21.2502 46.584 22.1208 45.2519 22.5015 43.75H33.4985C33.8792 45.2519 34.7498 46.584 35.9726 47.5356C37.1954 48.4871 38.7006 49.0037 40.25 49.0037C41.7994 49.0037 43.3046 48.4871 44.5274 47.5356C45.7502 46.584 46.6208 45.2519 47.0015 43.75H50.75C51.2141 43.75 51.6592 43.5656 51.9874 43.2374C52.3156 42.9093 52.5 42.4641 52.5 42V29.5313C52.4999 29.1709 52.3886 28.8193 52.1813 28.5246C51.9739 28.2299 51.6807 28.0063 51.3415 27.8845ZM15.75 45.5C15.0578 45.5 14.3811 45.2947 13.8055 44.9102C13.2299 44.5256 12.7813 43.9789 12.5164 43.3394C12.2515 42.6999 12.1822 41.9961 12.3173 41.3172C12.4523 40.6383 12.7856 40.0146 13.2751 39.5251C13.7646 39.0357 14.3883 38.7023 15.0672 38.5673C15.7461 38.4322 16.4499 38.5015 17.0894 38.7664C17.7289 39.0313 18.2756 39.4799 18.6601 40.0555C19.0447 40.6311 19.25 41.3078 19.25 42C19.2486 42.9278 18.8794 43.8173 18.2233 44.4734C17.5673 45.1294 16.6778 45.4986 15.75 45.5ZM40.25 45.5C39.5578 45.5 38.8811 45.2947 38.3055 44.9102C37.7299 44.5256 37.2813 43.9789 37.0164 43.3394C36.7515 42.6999 36.6822 41.9961 36.8173 41.3172C36.9523 40.6383 37.2856 40.0146 37.7751 39.5251C38.2646 39.0357 38.8883 38.7023 39.5672 38.5673C40.2461 38.4322 40.9499 38.5015 41.5894 38.7664C42.2289 39.0313 42.7756 39.4799 43.1601 40.0555C43.5447 40.6311 43.75 41.3078 43.75 42C43.7491 42.928 43.38 43.8177 42.7239 44.4739C42.0677 45.13 41.178 45.4991 40.25 45.5ZM49 40.25H47.0015C46.6208 38.7481 45.7502 37.416 44.5274 36.4645C43.3046 35.5129 41.7994 34.9963 40.25 34.9963C38.7006 34.9963 37.1954 35.5129 35.9726 36.4645C34.7498 37.416 33.8792 38.7481 33.4985 40.25H22.5015C22.1208 38.7481 21.2502 37.416 20.0274 36.4645C18.8046 35.5129 17.2994 34.9963 15.75 34.9963C14.2006 34.9963 12.6954 35.5129 11.4726 36.4645C10.2498 37.416 9.37919 38.7481 8.9985 40.25H7V28.1873C6.99981 27.1336 7.31691 26.1042 7.91 25.2333L12.6543 18.2665C12.8147 18.0304 13.0304 17.8371 13.2827 17.7035C13.5349 17.5699 13.816 17.5 14.1015 17.5H28.0945C28.3491 17.499 28.6009 17.554 28.8319 17.661C29.063 17.7681 29.2676 17.9246 29.4315 18.1195L35.3815 25.5903C35.5839 25.8443 35.8529 26.0369 36.1585 26.1468L49 30.7615V40.25Z" fill="#6D7885"/>
</svg>
