<svg width="56" height="56" viewBox="0 0 56 56" fill="none" xmlns="http://www.w3.org/2000/svg">
<path d="M26.9421 14.6408L27.9865 15.653L29.0304 14.6404L29.2938 14.385C31.68 12.1541 34.3753 10.9818 37.364 10.8466L37.9691 10.8334C44.5061 10.842 49.8334 16.1469 49.8334 22.6736C49.8334 25.8966 49.2836 28.1604 47.5694 30.6323C45.7813 33.2106 42.6938 36.0655 37.3946 40.31C37.3937 40.3108 37.3927 40.3115 37.3918 40.3123L35.23 42.026L35.2202 42.0336L29.7136 46.3253C28.7062 47.1104 27.294 47.1104 26.2865 46.3253L20.0223 41.4368C20.0211 41.4359 20.0199 41.4349 20.0187 41.4339C14.1065 36.7624 10.6614 33.6957 8.66776 30.9656C6.76088 28.3543 6.16675 26.0278 6.16675 22.6736C6.16675 16.1416 11.5027 10.8334 18.047 10.8334C21.2229 10.8334 24.1017 12.0063 26.6709 14.378L26.9421 14.6408Z" stroke="#99A2AD" stroke-width="3"/>
</svg>
