<svg width="24" height="24" viewBox="0 0 24 24" fill="none" xmlns="http://www.w3.org/2000/svg">
<path d="M15.6755 11.4872L16 11.7639L16.3245 11.4872C17.0876 10.8363 17.9865 10.5001 18.8833 10.5001C20.8537 10.5001 22.5 12.0039 22.5 13.9179C22.5 14.9484 22.208 15.7468 21.5029 16.5733C20.8232 17.3702 19.7514 18.2016 18.2087 19.3256L17.074 20.1524C16.4377 20.616 15.5623 20.616 14.9259 20.1524L13.7913 19.3256C12.2486 18.2016 11.1768 17.3702 10.4971 16.5733C9.79204 15.7468 9.5 14.9484 9.5 13.9179C9.5 12.0039 11.1463 10.5001 13.1167 10.5001C14.0136 10.5001 14.9124 10.8363 15.6755 11.4872ZM16.4047 12.5979L16.7128 12.9917L16.4047 12.598C16.25 12.719 16.1416 12.8163 16.0634 12.8865L16.0625 12.8873C16.0353 12.9117 16.015 12.9299 15.9983 12.9444C15.9791 12.9278 15.9557 12.9068 15.923 12.8775L15.922 12.8765C15.846 12.8083 15.7425 12.7152 15.5988 12.6007C15.5503 12.562 15.4948 12.5159 15.4282 12.4606L15.4198 12.4536C15.1908 12.2633 14.8616 11.9898 14.4849 11.7651C14.1071 11.5398 13.6334 11.3334 13.1167 11.3334C11.5419 11.3334 10.3261 12.523 10.3261 13.9179C10.3261 14.3123 10.3748 14.6736 10.5073 15.0285C10.6393 15.3824 10.8445 15.703 11.1233 16.0298C11.7285 16.7392 12.7172 17.5151 14.275 18.6501L15.4096 19.4768C15.7572 19.7301 16.2428 19.7301 16.5904 19.4768L17.725 18.6501C19.2828 17.5151 20.2715 16.7392 20.8767 16.0298C21.1555 15.703 21.3607 15.3824 21.4927 15.0285C21.6252 14.6736 21.6739 14.3123 21.6739 13.9179C21.6739 12.4812 20.2508 11.3334 18.7224 11.3334C18.274 11.3334 17.8481 11.5403 17.5164 11.7477C17.1786 11.9589 16.8658 12.2184 16.6366 12.4085L16.6278 12.4158C16.5394 12.4892 16.4666 12.5495 16.4047 12.5979ZM18.5 6.4001L3.99998 6.4001C3.77906 6.4001 3.59998 6.22102 3.59998 6.0001C3.59998 5.77919 3.77906 5.6001 3.99998 5.6001L18.5 5.6001C18.7209 5.6001 18.9 5.77918 18.9 6.0001C18.9 6.22101 18.7209 6.4001 18.5 6.4001ZM3.59998 11.0001C3.59998 10.7792 3.77906 10.6001 3.99998 10.6001L6.99998 10.6001C7.22089 10.6001 7.39998 10.7792 7.39998 11.0001C7.39998 11.221 7.22089 11.4001 6.99998 11.4001L3.99998 11.4001C3.77906 11.4001 3.59998 11.221 3.59998 11.0001ZM3.59998 16.0001C3.59998 15.7792 3.77906 15.6001 3.99998 15.6001H6.49998C6.72089 15.6001 6.89998 15.7792 6.89998 16.0001C6.89998 16.221 6.72089 16.4001 6.49998 16.4001H3.99998C3.77906 16.4001 3.59998 16.221 3.59998 16.0001Z" fill="#FFC107" stroke="#2787F5"/>
</svg>
