<svg width="24" height="24" viewBox="0 0 24 24" fill="none" xmlns="http://www.w3.org/2000/svg">
<path d="M5.76058 3.22455L15.4502 8.41211L12.4936 11.3687L4.23848 3.1135C4.71105 2.94121 5.25704 2.95499 5.76058 3.22455Z" fill="#99A2AD"/>
<path d="M16.2726 8.85238L19.0637 10.3466C20.384 11.0535 20.384 12.9464 19.0637 13.6533L16.2726 15.1476L13.125 12L16.2726 8.85238Z" fill="#99A2AD"/>
<path d="M3.48267 3.62039C3.18661 3.94579 3 4.38019 3 4.87791V19.1221C3 19.6198 3.18661 20.0543 3.48264 20.3797L11.8623 12L3.48267 3.62039Z" fill="#99A2AD"/>
<path d="M5.76058 20.7755C5.25704 21.0451 4.71101 21.0588 4.23848 20.8865L12.4937 12.6313L15.4502 15.5879L5.76058 20.7755Z" fill="#99A2AD"/>
</svg>
