<svg width="56" height="56" viewBox="0 0 56 56" fill="none" xmlns="http://www.w3.org/2000/svg">
<path d="M26.9419 14.641L27.9862 15.6531L29.0302 14.6406L29.2935 14.3851C31.6798 12.1542 34.3751 10.9819 37.3638 10.8467L37.9689 10.8335C44.5058 10.8421 49.8332 16.147 49.8332 22.6737C49.8332 25.8968 49.2834 28.1605 47.5692 30.6324C45.7811 33.2107 42.6936 36.0657 37.3944 40.3101C37.3934 40.3109 37.3925 40.3116 37.3916 40.3124L35.2297 42.0261L35.22 42.0338L29.7134 46.3254C28.7059 47.1106 27.2937 47.1106 26.2863 46.3254L20.0221 41.4369C20.0209 41.436 20.0197 41.435 20.0184 41.434C14.1063 36.7625 10.6611 33.6958 8.66751 30.9657C6.76064 28.3544 6.1665 26.0279 6.1665 22.6737C6.1665 16.1417 11.5025 10.8335 18.0467 10.8335C21.2226 10.8335 24.1015 12.0065 26.6707 14.3781L26.9419 14.641Z" stroke="#99A2AD" stroke-width="3"/>
</svg>
