<svg width="24" height="24" viewBox="0 0 24 24" fill="none" xmlns="http://www.w3.org/2000/svg">
<path d="M11.472 6.35156L11.9942 6.85764L12.5162 6.35137L12.6283 6.24259C13.6335 5.30315 14.7642 4.81257 16.0167 4.75562L16.2735 4.75001C19.0158 4.75428 21.25 6.98001 21.25 9.71723C21.25 11.0822 21.0183 12.0296 20.2988 13.067C19.5425 14.1577 18.2309 15.3726 15.9595 17.1919C15.959 17.1923 15.9585 17.1927 15.958 17.193L15.0303 17.9284L12.6685 19.7692C12.2755 20.0755 11.7245 20.0755 11.3315 19.7692L8.6474 17.6746C8.64681 17.6741 8.64621 17.6736 8.64562 17.6731C6.11076 15.6702 4.64578 14.3643 3.80125 13.2078C3.0001 12.1107 2.75 11.1371 2.75 9.71723C2.75 6.97738 4.98847 4.75 7.73438 4.75C9.06566 4.75 10.2738 5.2405 11.3567 6.23981L11.472 6.35156Z" stroke="#E64646" stroke-width="1.5"/>
</svg>
