<svg width="56" height="56" viewBox="0 0 56 56" fill="none" xmlns="http://www.w3.org/2000/svg">
<path d="M26 9C35.3888 9 43 16.6112 43 26C43 29.974 41.6364 33.6295 39.3517 36.5241L48.4142 45.5858C49.1953 46.3668 49.1953 47.6332 48.4142 48.4142C47.6332 49.1953 46.3668 49.1953 45.5858 48.4142L36.5241 39.3517C33.6295 41.6364 29.974 43 26 43C16.6112 43 9 35.3888 9 26C9 16.6112 16.6112 9 26 9ZM26 13C18.8203 13 13 18.8203 13 26C13 33.1797 18.8203 39 26 39C33.1797 39 39 33.1797 39 26C39 18.8203 33.1797 13 26 13Z" fill="#6D7885"/>
</svg>
