<svg width="24" height="24" viewBox="0 0 24 24" fill="none" xmlns="http://www.w3.org/2000/svg">
<path d="M11.1429 3.85718C15.1666 3.85718 18.4286 7.1191 18.4286 11.1429C18.4286 12.846 17.8442 14.4127 16.865 15.6532L20.749 19.5368C21.0837 19.8715 21.0837 20.4142 20.749 20.749C20.4142 21.0837 19.8715 21.0837 19.5368 20.749L15.6532 16.865C14.4126 17.8442 12.846 18.4286 11.1429 18.4286C7.11907 18.4286 3.85715 15.1667 3.85715 11.1429C3.85715 7.1191 7.11907 3.85718 11.1429 3.85718ZM11.1429 5.57146C8.06585 5.57146 5.57143 8.06588 5.57143 11.1429C5.57143 14.2199 8.06585 16.7143 11.1429 16.7143C14.2199 16.7143 16.7143 14.2199 16.7143 11.1429C16.7143 8.06588 14.2199 5.57146 11.1429 5.57146Z" fill="#99A2AD"/>
</svg>
