<svg width="25" height="24" viewBox="0 0 25 24" fill="none" xmlns="http://www.w3.org/2000/svg">
<path d="M12.5041 2.09998C16.5194 2.09998 19.4 5.37829 19.4 9.63156V11.2312C19.4 11.4599 19.5932 11.763 20.1205 12.307C20.1881 12.3768 20.2518 12.4415 20.3909 12.5823C21.4721 13.6789 21.9 14.3107 21.9 15.3272C21.9 15.7717 21.8481 16.1182 21.6323 16.5334C21.1761 17.411 20.2089 17.9 18.7631 17.9L16.8514 17.901C16.2221 20.2335 14.7209 21.5002 12.5 21.5002C10.2554 21.5002 8.74589 20.2064 8.12878 17.8261L8.14798 17.9H6.23682C4.74886 17.9 3.77132 17.3977 3.33464 16.4894C3.14368 16.0922 3.09998 15.7698 3.09998 15.3272C3.09998 14.3107 3.52785 13.6789 4.6091 12.5823C4.74817 12.4415 4.81184 12.3768 4.87946 12.307C5.40673 11.763 5.59998 11.4599 5.59998 11.2312V9.63156C5.59998 5.37994 8.48769 2.09998 12.5041 2.09998ZM14.9659 17.9018H10.034C10.49 19.1485 11.2758 19.7002 12.5 19.7002C13.7242 19.7002 14.51 19.1485 14.9659 17.9018ZM12.5041 3.89998C9.53644 3.89998 7.39998 6.32665 7.39998 9.63156V11.2312C7.39998 12.0838 7.01053 12.6946 6.17198 13.5598C6.09872 13.6354 6.02956 13.7056 5.89086 13.8461C5.14397 14.6036 4.89998 14.9639 4.89998 15.3272C4.89998 15.5193 4.91352 15.6192 4.9569 15.7094C5.0642 15.9326 5.38988 16.1 6.23682 16.1H18.7631C19.5832 16.1 19.9165 15.9315 20.0352 15.7032C20.0846 15.6081 20.1 15.5055 20.1 15.3272C20.1 14.9639 19.856 14.6036 19.1091 13.8461C18.9704 13.7056 18.9012 13.6354 18.828 13.5598C17.9894 12.6946 17.6 12.0838 17.6 11.2312V9.63156C17.6 6.32433 15.4697 3.89998 12.5041 3.89998Z" fill="#0A0A0A"/>
</svg>
