<svg width="56" height="56" viewBox="0 0 56 56" fill="none" xmlns="http://www.w3.org/2000/svg">
<path d="M28.0098 4.90002C37.3788 4.90002 44.1002 12.5494 44.1002 22.4737V26.2062C44.1002 26.7399 44.5511 27.4471 45.7814 28.7165C45.9392 28.8793 46.0878 29.0302 46.4123 29.3588C48.9352 31.9176 49.9336 33.3918 49.9336 35.7635C49.9336 36.8007 49.8125 37.6092 49.3089 38.5781C48.2444 40.6257 45.9878 41.7667 42.6143 41.7667L38.1534 41.7691C36.6853 47.2116 33.1824 50.1672 28.0002 50.1672C22.7628 50.1672 19.2407 47.1482 17.8008 41.5942L17.8456 41.7667H13.3862C9.91429 41.7667 7.63337 40.5947 6.61444 38.4753C6.16888 37.5485 6.06689 36.7962 6.06689 35.7635C6.06689 33.3918 7.06527 31.9176 9.58818 29.3588C9.91268 29.0302 10.0612 28.8793 10.219 28.7165C11.4493 27.4471 11.9002 26.7399 11.9002 26.2062V22.4737C11.9002 12.5533 18.6382 4.90002 28.0098 4.90002ZM33.7541 41.7711H22.2463C23.3102 44.6799 25.1437 45.9672 28.0002 45.9672C30.8568 45.9672 32.6903 44.6799 33.7541 41.7711ZM28.0098 9.10003C21.0853 9.10003 16.1002 14.7623 16.1002 22.4737V26.2062C16.1002 28.1955 15.1915 29.6208 13.2349 31.6395C13.064 31.8159 12.9026 31.9799 12.5789 32.3076C10.8362 34.0751 10.2669 34.9158 10.2669 35.7635C10.2669 36.2117 10.2985 36.4449 10.3997 36.6554C10.6501 37.1762 11.41 37.5667 13.3862 37.5667H42.6143C44.5278 37.5667 45.3054 37.1735 45.5824 36.6408C45.6977 36.4189 45.7336 36.1795 45.7336 35.7635C45.7336 34.9158 45.1642 34.0751 43.4215 32.3076C43.0979 31.9799 42.9365 31.8159 42.7655 31.6395C40.8089 29.6208 39.9002 28.1955 39.9002 26.2062V22.4737C39.9002 14.7568 34.9296 9.10003 28.0098 9.10003Z" fill="#6D7885"/>
</svg>
