<svg width="24" height="24" viewBox="0 0 24 24" fill="none" xmlns="http://www.w3.org/2000/svg">
<path d="M21.0714 12.8573V12.3573H20.5714H16.2H15.7913L15.71 12.7578C15.3593 14.4856 13.8309 15.7859 12 15.7859C10.1691 15.7859 8.64073 14.4856 8.29001 12.7578L8.20871 12.3573H7.80001H3.42856H2.92856V12.8573V15.3192C2.92856 16.6003 3.01927 17.1843 3.3443 17.792C3.60982 18.2885 3.99734 18.676 4.49383 18.9415C5.10158 19.2666 5.68559 19.3573 6.96665 19.3573H17.0333C18.3144 19.3573 18.8984 19.2666 19.5062 18.9415C20.0026 18.676 20.3902 18.2885 20.6557 17.792C20.9807 17.1843 21.0714 16.6003 21.0714 15.3192V12.8573ZM17.1676 4.64386L17.1676 4.64383L17.1627 4.64383L7.01615 4.643H7.01611C6.19319 4.643 5.81302 4.6866 5.40807 4.86565C5.08382 5.00902 4.81851 5.22184 4.60822 5.50726C4.34559 5.86373 4.22055 6.22539 4.04204 7.02872L3.15134 11.0345L3.01603 11.643H3.63942H8.57142C8.75033 11.643 8.8991 11.775 8.92464 11.9466L8.9286 12.0152C8.9367 13.7046 10.3087 15.0716 12 15.0716C13.6963 15.0716 15.0714 13.6964 15.0714 12.0001C15.0714 11.8029 15.2313 11.643 15.4286 11.643H20.3597H20.983L20.8478 11.0346L19.958 7.02875L19.9579 7.02872C19.7794 6.22539 19.6544 5.86373 19.3918 5.50726C19.1815 5.22184 18.9162 5.00902 18.5919 4.86565C18.2177 4.70019 17.8669 4.65083 17.1676 4.64386ZM16.9839 3.92871C17.9875 3.92871 18.4206 4.00889 18.8808 4.21237C19.3188 4.40604 19.6827 4.69801 19.9668 5.08358C20.2653 5.48869 20.4375 5.89403 20.6552 6.87377L21.7713 11.896L21.7857 12.0275V15.3192C21.7857 16.8077 21.6442 17.4583 21.2856 18.1289C20.9535 18.7498 20.464 19.2393 19.843 19.5714C19.1724 19.9301 18.5218 20.0716 17.0333 20.0716H6.96665C5.47815 20.0716 4.82759 19.9301 4.15697 19.5714C3.536 19.2393 3.04653 18.7498 2.71443 18.1289C2.35578 17.4583 2.21428 16.8077 2.21428 15.3192V12.0275L2.22872 11.896L3.34476 6.87377C3.56248 5.89403 3.73469 5.48869 4.03316 5.08358C4.31724 4.69801 4.6812 4.40604 5.11922 4.21237C5.57943 4.00889 6.01248 3.92871 7.01611 3.92871H16.9839Z" fill="#FFC107" stroke="#2787F5"/>
</svg>
