<svg width="33" height="32" viewBox="0 0 33 32" fill="none" xmlns="http://www.w3.org/2000/svg">
<path d="M15.5 14.3665V9.4665C15.5 9.17761 15.5946 8.9385 15.784 8.74917C15.9724 8.56073 16.2111 8.4665 16.5 8.4665C16.7888 8.4665 17.028 8.56073 17.2173 8.74917C17.4057 8.9385 17.5 9.17761 17.5 9.4665V14.3665L19.2333 12.5998C19.3444 12.5109 19.4608 12.4385 19.5826 12.3825C19.7053 12.3274 19.828 12.3056 19.9506 12.3172C20.0724 12.3278 20.2 12.3554 20.3333 12.3998C20.4666 12.4443 20.5777 12.5221 20.6666 12.6332C20.8666 12.8332 20.9666 13.0665 20.9666 13.3332C20.9666 13.5998 20.8666 13.8332 20.6666 14.0332L17.3333 17.3665C17.2222 17.4776 17.0946 17.5607 16.9506 17.6158C16.8057 17.6718 16.6555 17.6998 16.5 17.6998C16.3444 17.6998 16.1946 17.6718 16.0506 17.6158C15.9057 17.5607 15.7777 17.4776 15.6666 17.3665L12.3333 14.0332C12.2222 13.9443 12.1444 13.8332 12.1 13.6998C12.0555 13.5665 12.0333 13.4389 12.0333 13.3172C12.0333 13.1945 12.0555 13.0718 12.1 12.9492C12.1444 12.8274 12.2222 12.7221 12.3333 12.6332C12.5333 12.4332 12.7666 12.3278 13.0333 12.3172C13.3 12.3056 13.5444 12.3998 13.7666 12.5998L15.5 14.3665ZM7.56663 27.3332C6.89996 27.3332 6.33329 27.0998 5.86663 26.6332C5.39996 26.1665 5.16663 25.5998 5.16663 24.9332V7.0665C5.16663 6.39984 5.39996 5.83317 5.86663 5.3665C6.33329 4.89984 6.89996 4.6665 7.56663 4.6665H25.4333C26.1 4.6665 26.6666 4.89984 27.1333 5.3665C27.6 5.83317 27.8333 6.39984 27.8333 7.0665V24.9332C27.8333 25.5998 27.6 26.1665 27.1333 26.6332C26.6666 27.0998 26.1 27.3332 25.4333 27.3332H7.56663ZM7.56663 25.3332H25.4333C25.5444 25.3332 25.6391 25.2945 25.7173 25.2172C25.7946 25.1389 25.8333 25.0443 25.8333 24.9332V21.0665H21.4333C20.8555 21.9109 20.1391 22.5665 19.284 23.0332C18.428 23.4998 17.5 23.7332 16.5 23.7332C15.5 23.7332 14.5724 23.4998 13.7173 23.0332C12.8613 22.5665 12.1444 21.9109 11.5666 21.0665H7.16663V24.9332C7.16663 25.0443 7.20574 25.1389 7.28396 25.2172C7.36129 25.2945 7.45551 25.3332 7.56663 25.3332ZM16.5 21.7332C17.2111 21.7332 17.8724 21.5554 18.484 21.1998C19.0946 20.8443 19.5777 20.3554 19.9333 19.7332C20.0444 19.5332 20.2057 19.3723 20.4173 19.2505C20.628 19.1278 20.8555 19.0665 21.1 19.0665H25.8333V7.0665C25.8333 6.95539 25.7946 6.86117 25.7173 6.78384C25.6391 6.70561 25.5444 6.6665 25.4333 6.6665H7.56663C7.45551 6.6665 7.36129 6.70561 7.28396 6.78384C7.20574 6.86117 7.16663 6.95539 7.16663 7.0665V19.0665H11.9C12.1444 19.0665 12.372 19.1278 12.5826 19.2505C12.7942 19.3723 12.9555 19.5332 13.0666 19.7332C13.4222 20.3554 13.9057 20.8443 14.5173 21.1998C15.128 21.5554 15.7888 21.7332 16.5 21.7332ZM7.56663 25.3332H7.16663H25.8333H25.4333H7.56663Z" fill="#FFC107"/>
</svg>
