<svg width="57" height="56" viewBox="0 0 57 56" fill="none" xmlns="http://www.w3.org/2000/svg">
<path d="M40.129 8C42.5383 8 43.737 8.19118 45.0269 8.76153C46.2348 9.29558 47.2452 10.1061 48.0285 11.1693C48.8651 12.3048 49.3118 13.4335 49.8344 15.7854L52.4524 27.5661L52.5 28V35.7445C52.5 39.2977 52.1636 41.0396 51.1951 42.8506C50.3115 44.5028 49.0028 45.8115 47.3506 46.6951C45.5396 47.6636 43.7977 48 40.2445 48H16.7555C13.2023 48 11.4604 47.6636 9.64942 46.6951C7.99718 45.8115 6.68853 44.5028 5.8049 42.8506C4.83639 41.0396 4.5 39.2977 4.5 35.7445V28L4.54763 27.5661L7.16557 15.7854C7.68821 13.4335 8.13487 12.3048 8.97146 11.1693C9.75482 10.1061 10.7652 9.29558 11.9731 8.76153C13.263 8.19118 14.4617 8 16.8709 8H40.129ZM8.5 35.7445C8.5 38.6938 8.71592 39.8119 9.33216 40.9642C9.84299 41.9193 10.5806 42.657 11.5358 43.1678C12.6881 43.7841 13.8062 44 16.7555 44H40.2445C43.1938 44 44.3119 43.7841 45.4642 43.1678C46.4193 42.657 47.157 41.9193 47.6678 40.9642C48.2841 39.8119 48.5 38.6938 48.5 35.7445V30H38.3C37.3734 34.5645 33.3379 38 28.5 38C23.6621 38 19.6266 34.5645 18.7 30H8.5V35.7445ZM40.5462 12.002L16.8709 12C14.9718 12 14.2968 12.1077 13.5906 12.4199C13.0199 12.6722 12.562 13.0396 12.1918 13.542C11.7338 14.1636 11.4823 14.7992 11.0703 16.6531L8.992 26H20.5C21.5257 26 22.371 26.7721 22.4865 27.7668L22.5 28C22.5 31.3137 25.1863 34 28.5 34C31.8137 34 34.5 31.3137 34.5 28C34.5 26.8954 35.3954 26 36.5 26H48.006L45.9297 16.6531C45.5177 14.7992 45.2662 14.1636 44.8082 13.542C44.438 13.0396 43.9801 12.6722 43.4094 12.4199C42.7575 12.1317 42.1322 12.0178 40.5462 12.002Z" fill="#6D7885"/>
</svg>
