<svg width="24" height="24" viewBox="0 0 24 24" fill="none" xmlns="http://www.w3.org/2000/svg">
<path d="M11.25 10.775V7.1C11.25 6.88333 11.321 6.704 11.463 6.562C11.6043 6.42067 11.7833 6.35 12 6.35C12.2167 6.35 12.396 6.42067 12.538 6.562C12.6793 6.704 12.75 6.88333 12.75 7.1V10.775L14.05 9.45C14.1333 9.38333 14.2207 9.329 14.312 9.287C14.404 9.24567 14.496 9.22933 14.588 9.238C14.6793 9.246 14.775 9.26667 14.875 9.3C14.975 9.33333 15.0583 9.39167 15.125 9.475C15.275 9.625 15.35 9.8 15.35 10C15.35 10.2 15.275 10.375 15.125 10.525L12.625 13.025C12.5417 13.1083 12.446 13.1707 12.338 13.212C12.2293 13.254 12.1167 13.275 12 13.275C11.8833 13.275 11.771 13.254 11.663 13.212C11.5543 13.1707 11.4583 13.1083 11.375 13.025L8.875 10.525C8.79167 10.4583 8.73333 10.375 8.7 10.275C8.66667 10.175 8.65 10.0793 8.65 9.988C8.65 9.896 8.66667 9.804 8.7 9.712C8.73333 9.62067 8.79167 9.54167 8.875 9.475C9.025 9.325 9.2 9.246 9.4 9.238C9.6 9.22933 9.78333 9.3 9.95 9.45L11.25 10.775ZM5.3 20.5C4.8 20.5 4.375 20.325 4.025 19.975C3.675 19.625 3.5 19.2 3.5 18.7V5.3C3.5 4.8 3.675 4.375 4.025 4.025C4.375 3.675 4.8 3.5 5.3 3.5H18.7C19.2 3.5 19.625 3.675 19.975 4.025C20.325 4.375 20.5 4.8 20.5 5.3V18.7C20.5 19.2 20.325 19.625 19.975 19.975C19.625 20.325 19.2 20.5 18.7 20.5H5.3ZM5.3 19H18.7C18.7833 19 18.8543 18.971 18.913 18.913C18.971 18.8543 19 18.7833 19 18.7V15.8H15.7C15.2667 16.4333 14.7293 16.925 14.088 17.275C13.446 17.625 12.75 17.8 12 17.8C11.25 17.8 10.5543 17.625 9.913 17.275C9.271 16.925 8.73333 16.4333 8.3 15.8H5V18.7C5 18.7833 5.02933 18.8543 5.088 18.913C5.146 18.971 5.21667 19 5.3 19ZM12 16.3C12.5333 16.3 13.0293 16.1667 13.488 15.9C13.946 15.6333 14.3083 15.2667 14.575 14.8C14.6583 14.65 14.7793 14.5293 14.938 14.438C15.096 14.346 15.2667 14.3 15.45 14.3H19V5.3C19 5.21667 18.971 5.146 18.913 5.088C18.8543 5.02933 18.7833 5 18.7 5H5.3C5.21667 5 5.146 5.02933 5.088 5.088C5.02933 5.146 5 5.21667 5 5.3V14.3H8.55C8.73333 14.3 8.904 14.346 9.062 14.438C9.22067 14.5293 9.34167 14.65 9.425 14.8C9.69167 15.2667 10.0543 15.6333 10.513 15.9C10.971 16.1667 11.4667 16.3 12 16.3ZM5.3 19H5H19H18.7H5.3Z" fill="#FFC107"/>
</svg>
