<svg width="33" height="32" viewBox="0 0 33 32" fill="none" xmlns="http://www.w3.org/2000/svg">
<mask id="mask0_4462_507" style="mask-type:alpha" maskUnits="userSpaceOnUse" x="0" y="0" width="33" height="32">
<rect x="0.25" width="32" height="32" fill="#D9D9D9"/>
</mask>
<g mask="url(#mask0_4462_507)">
<path d="M6.94997 28C5.83886 28 4.89441 27.6111 4.11663 26.8333C3.33886 26.0556 2.94997 25.1111 2.94997 24C2.94997 22.8889 3.33886 21.9444 4.11663 21.1667C4.89441 20.3889 5.83886 20 6.94997 20H25.6166C26.7277 20 27.6722 20.3889 28.45 21.1667C29.2277 21.9444 29.6166 22.8889 29.6166 24C29.6166 25.1111 29.2277 26.0556 28.45 26.8333C27.6722 27.6111 26.7277 28 25.6166 28H6.94997ZM6.94997 26H25.6166C26.1944 26 26.6722 25.8056 27.05 25.4167C27.4277 25.0278 27.6166 24.5556 27.6166 24C27.6166 23.4222 27.4277 22.9444 27.05 22.5667C26.6722 22.1889 26.1944 22 25.6166 22H6.94997C6.39441 22 5.92219 22.1889 5.5333 22.5667C5.14441 22.9444 4.94997 23.4222 4.94997 24C4.94997 24.5556 5.14441 25.0278 5.5333 25.4167C5.92219 25.8056 6.39441 26 6.94997 26ZM13.2833 17.3333C12.9944 17.3333 12.7555 17.2389 12.5666 17.05C12.3777 16.8611 12.2833 16.6222 12.2833 16.3333V5C12.2833 4.71111 12.3777 4.47222 12.5666 4.28333C12.7555 4.09444 12.9944 4 13.2833 4H24.6166C24.9055 4 25.1444 4.09444 25.3333 4.28333C25.5222 4.47222 25.6166 4.71111 25.6166 5V16.3333C25.6166 16.6222 25.5222 16.8611 25.3333 17.05C25.1444 17.2389 24.9055 17.3333 24.6166 17.3333H13.2833ZM14.2833 15.3333H23.6166V6H14.2833V15.3333ZM2.8833 14.3333V12.3333H10.25V14.3333H2.8833ZM16.25 10.3333H21.65V8.33333H16.25V10.3333ZM5.61663 10.3333H10.5166V8.33333H5.61663V10.3333Z" fill="#99A2AD"/>
</g>
</svg>
