<svg width="25" height="24" viewBox="0 0 25 24" fill="none" xmlns="http://www.w3.org/2000/svg">
<path d="M12.4999 1.71423C18.1806 1.71423 22.7857 6.3193 22.7857 11.9999C22.7857 17.6806 18.1806 22.2857 12.4999 22.2857C6.8193 22.2857 2.21423 17.6806 2.21423 11.9999C2.21423 6.3193 6.8193 1.71423 12.4999 1.71423ZM12.4999 17.5714C10.712 17.5714 9.00284 18.0702 7.53127 18.9848C8.93267 19.9839 10.6477 20.5714 12.4999 20.5714C14.3518 20.5714 16.0665 19.9841 17.468 18.9856C15.9966 18.0701 14.2877 17.5714 12.4999 17.5714ZM12.4999 3.42852C7.76608 3.42852 3.92852 7.26608 3.92852 11.9999C3.92852 14.242 4.78931 16.2829 6.19843 17.8104C8.03048 16.5498 10.2122 15.8571 12.4999 15.8571C14.7879 15.8571 16.9699 16.55 18.8022 17.8092C20.2109 16.2822 21.0714 14.2415 21.0714 11.9999C21.0714 7.26608 17.2338 3.42852 12.4999 3.42852ZM12.4999 6.42852C14.7492 6.42852 16.5714 8.25067 16.5714 10.4999C16.5714 12.7492 14.7492 14.5714 12.4999 14.5714C10.2507 14.5714 8.42852 12.7492 8.42852 10.4999C8.42852 8.25067 10.2507 6.42852 12.4999 6.42852ZM12.4999 8.1428C11.1974 8.1428 10.1428 9.19744 10.1428 10.4999C10.1428 11.8025 11.1974 12.8571 12.4999 12.8571C13.8025 12.8571 14.8571 11.8025 14.8571 10.4999C14.8571 9.19744 13.8025 8.1428 12.4999 8.1428Z" fill="#0A0A0A"/>
</svg>
