<svg width="33" height="32" viewBox="0 0 33 32" fill="none" xmlns="http://www.w3.org/2000/svg">
<path d="M25.3667 28.6336C25.2111 28.6336 25.0667 28.606 24.9334 28.5509C24.8 28.4949 24.6667 28.4113 24.5334 28.3002L17.8 21.5669C17.6889 21.4558 17.6058 21.3278 17.5507 21.1829C17.4947 21.0389 17.4667 20.8891 17.4667 20.7336C17.4667 20.578 17.4947 20.4278 17.5507 20.2829C17.6058 20.1389 17.6889 20.0113 17.8 19.9002L20.3334 17.3669C20.4667 17.2336 20.6 17.1447 20.7334 17.1002C20.8667 17.0558 21.0111 17.0336 21.1667 17.0336C21.3445 17.0336 21.5 17.0558 21.6334 17.1002C21.7667 17.1447 21.9 17.2336 22.0334 17.3669L28.7334 24.1002C28.8667 24.2113 28.9614 24.3389 29.0174 24.4829C29.0725 24.6278 29.1 24.778 29.1 24.9336C29.1 25.0891 29.0725 25.2393 29.0174 25.3842C28.9614 25.5282 28.8667 25.6558 28.7334 25.7669L26.2334 28.3002C26.1 28.4113 25.9667 28.4949 25.8334 28.5509C25.7 28.606 25.5445 28.6336 25.3667 28.6336ZM25.3667 26.3669L26.8 24.9336L21.2 19.3336L19.8 20.7669L25.3667 26.3669ZM7.60003 28.6669C7.42225 28.6669 7.26137 28.6336 7.11737 28.5669C6.97248 28.5002 6.84448 28.4113 6.73337 28.3002L4.23337 25.8002C4.10003 25.6669 4.00581 25.5282 3.9507 25.3842C3.8947 25.2393 3.8667 25.0891 3.8667 24.9336C3.8667 24.778 3.8947 24.6278 3.9507 24.4829C4.00581 24.3389 4.10003 24.2002 4.23337 24.0669L11.2 17.1002H14L15.0667 16.0336L9.50003 10.4669H7.60003L3.90003 6.76689L7.20003 3.46689L10.9 7.16689V9.06689L16.4667 14.6336L20.4334 10.7002L18.4667 8.73356L20.1667 7.06689H16.7667L16.0334 6.33356L20.3 2.06689L21 2.80023V6.20023L22.7 4.50023L27.7334 9.50023C28.0667 9.85578 28.3223 10.25 28.5 10.6829C28.6778 11.1167 28.7667 11.578 28.7667 12.0669C28.7667 12.5113 28.6947 12.9278 28.5507 13.3162C28.4058 13.7056 28.1889 14.0669 27.9 14.4002L25.1334 11.6336L23.2334 13.5002L21.8334 12.1002L15.4 18.5336V21.3669L8.43337 28.3002C8.30003 28.4113 8.1667 28.5002 8.03337 28.5669C7.90003 28.6336 7.75559 28.6669 7.60003 28.6669ZM7.60003 26.3336L13.7 20.2336V18.8002H12.3L6.1667 24.9336L7.60003 26.3336ZM7.60003 26.3336L6.1667 24.9336L6.90003 25.6336L7.60003 26.3336Z" fill="#FFC107"/>
</svg>
