<svg width="24" height="24" viewBox="0 0 24 24" fill="none" xmlns="http://www.w3.org/2000/svg">
<path d="M12.984 1.74928C13.3505 1.80791 13.6971 1.94813 14.0084 2.19715C14.5183 2.60508 14.7611 3.11929 14.9488 3.87001C14.9969 4.06219 15.08 4.28623 15.1839 4.50368C15.4223 4.60501 15.6554 4.71764 15.8827 4.84112C16.1071 4.78569 16.3226 4.71208 16.4946 4.63198C17.7051 4.06845 18.7206 4.09806 19.5522 4.99501C19.6226 5.07088 19.6646 5.12114 19.7559 5.23398L20.2954 5.9001C20.4404 6.07925 20.5024 6.16088 20.5939 6.31318C21.1869 7.30012 20.9557 8.21929 20.2061 9.2153C20.0818 9.38056 19.9548 9.5969 19.8486 9.8245C19.9156 10.0667 19.9714 10.3122 20.0157 10.5606C20.2067 10.7135 20.4096 10.8476 20.5889 10.939C21.2781 11.2908 21.7245 11.6431 22.0073 12.2317C22.1799 12.591 22.2386 12.9603 22.2133 13.3305C22.1999 13.5263 22.1787 13.6353 22.1223 13.8796L21.9295 14.7148C21.8731 14.959 21.8443 15.0664 21.7705 15.2481C21.631 15.592 21.4164 15.8982 21.1037 16.1455C20.5915 16.5506 20.0359 16.6715 19.2622 16.6855C19.0665 16.689 18.8326 16.719 18.6 16.7702C18.4487 16.9792 18.2876 17.1809 18.1173 17.3747C18.1202 17.6097 18.1436 17.8407 18.1836 18.0296C18.344 18.7866 18.3512 19.3552 18.0717 19.9454C17.9011 20.3056 17.651 20.5836 17.3473 20.797C17.1868 20.9097 17.0887 20.962 16.8634 21.0718L16.093 21.4476C15.8677 21.5575 15.7662 21.6026 15.5785 21.6597C15.2234 21.7676 14.8503 21.7936 14.4614 21.7062C13.8243 21.5631 13.3806 21.2074 12.8828 20.6149C12.7513 20.4583 12.5715 20.2878 12.376 20.1344C12.251 20.1401 12.1257 20.1429 12 20.1429C11.8744 20.1429 11.749 20.1401 11.624 20.1344C11.4286 20.2878 11.2488 20.4583 11.1172 20.6149C10.6194 21.2074 10.1757 21.5631 9.53861 21.7062C9.14968 21.7936 8.77663 21.7676 8.42155 21.6597C8.23387 21.6026 8.13234 21.5575 7.90702 21.4476L7.13662 21.0718C7.06889 21.0389 7.02688 21.0181 6.9778 20.9925C5.85361 20.4071 5.52405 19.4093 5.81642 18.0296C5.85644 17.8407 5.87981 17.6097 5.88272 17.3747C5.71241 17.1809 5.55133 16.9792 5.40007 16.7702C5.16742 16.719 4.93355 16.689 4.73784 16.6855C3.96414 16.6715 3.40848 16.5506 2.89631 16.1455C2.58365 15.8982 2.36904 15.592 2.22948 15.2481C2.1557 15.0664 2.12689 14.959 2.0705 14.7148L1.87769 13.8796C1.81798 13.621 1.79599 13.5057 1.78466 13.2961C1.76343 12.9033 1.8386 12.513 2.038 12.1427C2.32853 11.6032 2.75856 11.2721 3.41116 10.939C3.59041 10.8476 3.79335 10.7135 3.98429 10.5606C4.02865 10.3122 4.08446 10.0667 4.15147 9.8245C4.04524 9.5969 3.91826 9.38056 3.79389 9.2153C3.04433 8.21929 2.81309 7.30012 3.40611 6.31318C3.49763 6.16088 3.5596 6.07925 3.70467 5.9001L4.24409 5.23398C4.33546 5.12114 4.37746 5.07088 4.4478 4.99501C5.2794 4.09806 6.29489 4.06845 7.50539 4.63198C7.67745 4.71208 7.89291 4.78569 8.11727 4.84112C8.34457 4.71764 8.57777 4.60501 8.81611 4.50368C8.92001 4.28623 9.00315 4.06219 9.0512 3.87001C9.23887 3.11929 9.4817 2.60508 9.99161 2.19715C10.3029 1.94813 10.6495 1.80791 11.016 1.74928C11.171 1.72448 11.273 1.71701 11.436 1.71501L12.4286 1.71436C12.6793 1.71436 12.7903 1.71829 12.984 1.74928ZM12.502 3.42882L11.5714 3.42864C11.1429 3.42864 10.9286 3.42864 10.7143 4.28578C10.5954 4.76156 10.3444 5.36938 9.99798 5.88936C9.44719 6.0697 8.92918 6.32243 8.4552 6.63631C7.84083 6.57578 7.22084 6.39046 6.78188 6.18611C5.9809 5.81322 5.84605 5.97975 5.57634 6.31281L5.03692 6.97894C4.76721 7.312 4.63236 7.47853 5.16363 8.18448C5.46265 8.58182 5.78174 9.17011 5.96679 9.77538C5.7773 10.2891 5.65155 10.8336 5.59913 11.3994C5.16917 11.8574 4.62973 12.2418 4.19039 12.466C3.40342 12.8676 3.45163 13.0764 3.54803 13.494L3.74085 14.3291C3.83726 14.7467 3.88546 14.9555 4.76884 14.9715C5.25726 14.9803 5.90281 15.0874 6.48559 15.3062C6.78159 15.7988 7.14174 16.2485 7.55449 16.6438C7.63537 17.2588 7.59435 17.9088 7.49347 18.3849C7.31032 19.2492 7.50292 19.3432 7.88812 19.5311L8.65851 19.9068C9.04371 20.0947 9.23631 20.1886 9.80465 19.5122C10.1233 19.1329 10.6222 18.6915 11.1679 18.3753C11.4403 18.4105 11.718 18.4286 12 18.4286C12.282 18.4286 12.5597 18.4105 12.8321 18.3753C13.3778 18.6915 13.8767 19.1329 14.1954 19.5122C14.7637 20.1886 14.9563 20.0947 15.3415 19.9068L16.1119 19.5311C16.4971 19.3432 16.6897 19.2492 16.5066 18.3849C16.4057 17.9088 16.3647 17.2588 16.4455 16.6438C16.8583 16.2485 17.2184 15.7988 17.5144 15.3062C18.0972 15.0874 18.7428 14.9803 19.2312 14.9715C20.1146 14.9555 20.1628 14.7467 20.2592 14.3291L20.452 13.494C20.5484 13.0764 20.5966 12.8676 19.8096 12.466C19.3703 12.2418 18.8309 11.8574 18.4009 11.3994C18.3485 10.8336 18.2227 10.2891 18.0332 9.77538C18.2183 9.17011 18.5374 8.58182 18.8364 8.18448C19.3677 7.47853 19.2328 7.312 18.9631 6.97894L18.4237 6.31281C18.154 5.97975 18.0191 5.81322 17.2181 6.18611C16.7792 6.39046 16.1592 6.57578 15.5448 6.63631C15.0708 6.32243 14.5528 6.0697 14.002 5.88936C13.6557 5.36938 13.4047 4.76156 13.2857 4.28578C13.084 3.47906 12.8824 3.43161 12.502 3.42882ZM12 8.14293C14.1303 8.14293 15.8572 9.86983 15.8572 12.0001C15.8572 14.1303 14.1303 15.8572 12 15.8572C9.86977 15.8572 8.14287 14.1303 8.14287 12.0001C8.14287 9.86983 9.86977 8.14293 12 8.14293ZM12 9.85721C10.8165 9.85721 9.85715 10.8166 9.85715 12.0001C9.85715 13.1835 10.8165 14.1429 12 14.1429C13.1835 14.1429 14.1429 13.1835 14.1429 12.0001C14.1429 10.8166 13.1835 9.85721 12 9.85721Z" fill="#2787F5"/>
</svg>
