<svg width="33" height="32" viewBox="0 0 33 32" fill="none" xmlns="http://www.w3.org/2000/svg">
<path d="M7.26668 27.6668C6.60002 27.6668 6.03335 27.4335 5.56668 26.9668C5.10002 26.5002 4.86668 25.9335 4.86668 25.2668V14.6002C4.31113 14.1557 3.90002 13.5833 3.63335 12.8828C3.36668 12.1833 3.36668 11.4224 3.63335 10.6002L4.96668 6.20016C5.14446 5.64461 5.45024 5.19439 5.88402 4.8495C6.31691 4.5055 6.82224 4.3335 7.40002 4.3335H25.6C26.2 4.3335 26.7111 4.50016 27.1334 4.8335C27.5556 5.16683 27.8556 5.61127 28.0333 6.16683L29.4 10.6002C29.6667 11.4224 29.6667 12.1833 29.4 12.8828C29.1333 13.5833 28.7333 14.1668 28.2 14.6335V25.2668C28.2 25.9335 27.9667 26.5002 27.5 26.9668C27.0333 27.4335 26.4556 27.6668 25.7667 27.6668H7.26668ZM19.4667 13.6668C20.1778 13.6668 20.7169 13.4446 21.084 13.0002C21.4502 12.5557 21.6 12.0779 21.5333 11.5668L20.7334 6.3335H17.5333V11.6002C17.5333 12.1557 17.7222 12.6388 18.1 13.0495C18.4778 13.4611 18.9334 13.6668 19.4667 13.6668ZM13.4667 13.6668C14.0667 13.6668 14.5614 13.4611 14.9507 13.0495C15.3391 12.6388 15.5333 12.1557 15.5333 11.6002V6.3335H12.3L11.5 11.6002C11.4334 12.0891 11.5836 12.5557 11.9507 13.0002C12.3169 13.4446 12.8222 13.6668 13.4667 13.6668ZM7.53335 13.6668C8.02224 13.6668 8.44446 13.4948 8.80002 13.1508C9.15557 12.8059 9.37779 12.3779 9.46668 11.8668L10.2334 6.3335H7.40002C7.26668 6.3335 7.15557 6.36683 7.06668 6.4335C6.97779 6.50016 6.91113 6.60016 6.86668 6.7335L5.60002 11.0668C5.42224 11.6224 5.50002 12.1944 5.83335 12.7828C6.16668 13.3722 6.73335 13.6668 7.53335 13.6668ZM25.5333 13.6668C26.2445 13.6668 26.7947 13.3837 27.184 12.8175C27.5725 12.2504 27.6667 11.6668 27.4667 11.0668L26.1 6.70016C26.0556 6.56683 25.9942 6.47216 25.916 6.41616C25.8387 6.36105 25.7222 6.3335 25.5667 6.3335H22.8L23.6 11.8668C23.6667 12.3779 23.8778 12.8059 24.2333 13.1508C24.5889 13.4948 25.0222 13.6668 25.5333 13.6668ZM7.26668 25.6668H25.7667C25.9 25.6668 26.0058 25.6282 26.084 25.5508C26.1613 25.4726 26.2 25.3779 26.2 25.2668V15.5335C26.0445 15.6002 25.9169 15.6393 25.8174 15.6508C25.7169 15.6615 25.6222 15.6668 25.5333 15.6668C24.9333 15.6668 24.4053 15.5557 23.9494 15.3335C23.4942 15.1113 23.0445 14.7668 22.6 14.3002C22.2445 14.7224 21.8111 15.0557 21.3 15.3002C20.7889 15.5446 20.2 15.6668 19.5333 15.6668C18.9778 15.6668 18.4502 15.5504 17.9507 15.3175C17.4502 15.0837 16.9778 14.7446 16.5333 14.3002C16.1111 14.7446 15.6391 15.0837 15.1174 15.3175C14.5947 15.5504 14.0667 15.6668 13.5333 15.6668C12.9333 15.6668 12.372 15.5557 11.8493 15.3335C11.3276 15.1113 10.8667 14.7668 10.4667 14.3002C9.88891 14.8557 9.36668 15.2224 8.90002 15.4002C8.43335 15.5779 7.97779 15.6668 7.53335 15.6668C7.42224 15.6668 7.31113 15.6615 7.20002 15.6508C7.08891 15.6393 6.97779 15.6002 6.86668 15.5335V25.2668C6.86668 25.3779 6.90579 25.4726 6.98402 25.5508C7.06135 25.6282 7.15557 25.6668 7.26668 25.6668Z" fill="#FFC107"/>
</svg>
