<svg width="33" height="32" viewBox="0 0 33 32" fill="none" xmlns="http://www.w3.org/2000/svg">
<path d="M16.5 28C23.1274 28 28.5 22.6274 28.5 16C28.5 9.37258 23.1274 4 16.5 4C9.87258 4 4.5 9.37258 4.5 16C4.5 22.6274 9.87258 28 16.5 28Z" stroke="#FFC107" stroke-width="2" stroke-linecap="round" stroke-linejoin="round"/>
<path d="M16.4999 18.6668C17.9727 18.6668 19.1666 17.4729 19.1666 16.0002C19.1666 14.5274 17.9727 13.3335 16.4999 13.3335C15.0272 13.3335 13.8333 14.5274 13.8333 16.0002C13.8333 17.4729 15.0272 18.6668 16.4999 18.6668Z" stroke="#FFC107" stroke-width="2" stroke-linecap="round" stroke-linejoin="round"/>
<path d="M16.4999 18.6668V28.0002M13.8333 16.0002L4.83325 13.3335M19.1666 16.0002L28.1666 13.3335" stroke="#FFC107" stroke-width="2" stroke-linecap="round" stroke-linejoin="round"/>
</svg>
