<svg width="24" height="24" viewBox="0 0 24 24" fill="none" xmlns="http://www.w3.org/2000/svg">
<circle cx="12" cy="12" r="12" fill="#10A9FF"/>
<path d="M6.14999 12.2262C7.16597 11.6666 8.30007 11.1995 9.35972 10.7301C11.1827 9.96113 13.013 9.20552 14.8617 8.50206C15.2214 8.3822 15.8677 8.265 15.931 8.79803C15.8963 9.55255 15.7536 10.3027 15.6557 11.0528C15.4072 12.7023 15.1199 14.3462 14.8398 15.9903C14.7433 16.538 14.0573 16.8215 13.6183 16.471C12.5633 15.7584 11.5003 15.0528 10.4588 14.3237C10.1177 13.977 10.434 13.4792 10.7387 13.2316C11.6076 12.3754 12.5291 11.6479 13.3525 10.7473C13.5746 10.2109 12.9183 10.663 12.7018 10.8015C11.5123 11.6212 10.3519 12.491 9.09784 13.2114C8.45724 13.564 7.71062 13.2627 7.07031 13.0659C6.49621 12.8282 5.65491 12.5887 6.14994 12.2263L6.14999 12.2262Z" fill="white"/>
</svg>
