<svg width="33" height="32" viewBox="0 0 33 32" fill="none" xmlns="http://www.w3.org/2000/svg">
<path d="M6.13333 26.0335C5.11111 26.0335 4.25022 25.6722 3.55067 24.9495C2.85022 24.2278 2.5 23.3669 2.5 22.3669V14.7669C2.5 14.1002 2.73333 13.5335 3.2 13.0669C3.66667 12.6002 4.23333 12.3669 4.9 12.3669H11.7V6.9002C11.7 6.56686 11.8169 6.28331 12.0507 6.04953C12.2836 5.81664 12.5667 5.7002 12.9 5.7002H17.7333C18.7556 5.7002 19.6222 6.05575 20.3333 6.76686C21.0444 7.47797 21.4 8.34464 21.4 9.36686V14.8002H22.9333V13.1335C22.9333 12.8224 22.9942 12.5224 23.116 12.2335C23.2387 11.9446 23.4111 11.6891 23.6333 11.4669L24.7 10.4002C24.9889 10.1113 25.3333 9.99442 25.7333 10.0495C26.1333 10.1055 26.4222 10.3224 26.6 10.7002L30.4333 17.9002C30.6556 18.3002 30.6502 18.7002 30.4173 19.1002C30.1836 19.5002 29.8333 19.7002 29.3667 19.7002H25.2667C24.6222 19.7002 24.072 19.4722 23.616 19.0162C23.1609 18.5611 22.9333 18.0113 22.9333 17.3669V16.8002H21.4V19.4669C21.8444 19.8224 22.1942 20.25 22.4493 20.7495C22.7053 21.25 22.8333 21.7891 22.8333 22.3669C22.8333 23.3669 22.4778 24.2278 21.7667 24.9495C21.0556 25.6722 20.1889 26.0335 19.1667 26.0335C18.3444 26.0335 17.6111 25.7891 16.9667 25.3002C16.3222 24.8113 15.8778 24.1669 15.6333 23.3669H9.66667C9.42222 24.1669 8.97778 24.8113 8.33333 25.3002C7.68889 25.7891 6.95556 26.0335 6.13333 26.0335ZM6.13333 24.0335C6.6 24.0335 7 23.8669 7.33333 23.5335C7.66667 23.2002 7.83333 22.8113 7.83333 22.3669C7.83333 21.9002 7.66667 21.5055 7.33333 21.1829C7 20.8611 6.61111 20.7002 6.16667 20.7002C5.7 20.7002 5.30533 20.8611 4.98267 21.1829C4.66089 21.5055 4.5 21.9002 4.5 22.3669C4.5 22.8113 4.65556 23.2002 4.96667 23.5335C5.27778 23.8669 5.66667 24.0335 6.13333 24.0335ZM19.1667 24.0335C19.6333 24.0335 20.0276 23.8669 20.3493 23.5335C20.672 23.2002 20.8333 22.8113 20.8333 22.3669C20.8333 21.9002 20.672 21.5055 20.3493 21.1829C20.0276 20.8611 19.6333 20.7002 19.1667 20.7002C18.7 20.7002 18.3058 20.8611 17.984 21.1829C17.6613 21.5055 17.5 21.9002 17.5 22.3669C17.5 22.8113 17.6613 23.2002 17.984 23.5335C18.3058 23.8669 18.7 24.0335 19.1667 24.0335ZM11.7 21.3669V14.3669H4.9C4.78889 14.3669 4.69467 14.4055 4.61733 14.4829C4.53911 14.5611 4.5 14.6558 4.5 14.7669V19.2002C4.74444 19.0224 5.00578 18.8944 5.284 18.8162C5.56133 18.7389 5.85556 18.7002 6.16667 18.7002C6.96667 18.7002 7.69467 18.9446 8.35067 19.4335C9.00578 19.9224 9.44445 20.5669 9.66667 21.3669H11.7ZM13.7 21.3669H15.6333C15.8556 20.5669 16.2947 19.9224 16.9507 19.4335C17.6058 18.9446 18.3444 18.7002 19.1667 18.7002H19.4V16.8002H13.7V21.3669ZM28.0667 17.7002L25.3667 12.5669L25.0667 12.9002C25.0222 12.9224 24.9889 12.9558 24.9667 13.0002C24.9444 13.0446 24.9333 13.0891 24.9333 13.1335V17.3669C24.9556 17.4558 24.9947 17.5335 25.0507 17.6002C25.1058 17.6669 25.1778 17.7002 25.2667 17.7002H28.0667ZM13.7 14.8002H19.4V9.36686C19.4 8.9002 19.2387 8.50553 18.916 8.18286C18.5942 7.86108 18.2 7.7002 17.7333 7.7002H13.7V14.8002ZM11.7 21.3669V18.7002V19.2002V14.3669V21.3669Z" fill="#FFC107"/>
</svg>
