<svg width="33" height="32" viewBox="0 0 33 32" fill="none" xmlns="http://www.w3.org/2000/svg">
<mask id="mask0_4462_1136" style="mask-type:alpha" maskUnits="userSpaceOnUse" x="0" y="0" width="33" height="32">
<rect x="0.75" width="32" height="32" fill="#D9D9D9"/>
</mask>
<g mask="url(#mask0_4462_1136)">
<path d="M8.21671 26.6335C7.12782 26.6335 6.20004 26.2502 5.43337 25.4835C4.66671 24.7168 4.28337 23.7891 4.28337 22.7002H2.08337V7.3335C2.08337 6.80016 2.28337 6.3335 2.68337 5.9335C3.08337 5.5335 3.55004 5.3335 4.08337 5.3335H23.3834V10.9002H26.8834L31.4167 16.9335V22.7002H29.05C29.05 23.7891 28.6667 24.7168 27.9 25.4835C27.1334 26.2502 26.2056 26.6335 25.1167 26.6335C24.0278 26.6335 23.1 26.2502 22.3334 25.4835C21.5667 24.7168 21.1834 23.7891 21.1834 22.7002H12.15C12.15 23.7891 11.7667 24.7168 11 25.4835C10.2334 26.2502 9.3056 26.6335 8.21671 26.6335ZM8.21671 24.6335C8.75004 24.6335 9.2056 24.4446 9.58337 24.0668C9.96115 23.6891 10.15 23.2335 10.15 22.7002C10.15 22.1668 9.96115 21.7113 9.58337 21.3335C9.2056 20.9557 8.75004 20.7668 8.21671 20.7668C7.68337 20.7668 7.22782 20.9557 6.85004 21.3335C6.47226 21.7113 6.28337 22.1668 6.28337 22.7002C6.28337 23.2335 6.47226 23.6891 6.85004 24.0668C7.22782 24.4446 7.68337 24.6335 8.21671 24.6335ZM4.08337 20.7002H4.81671C5.19449 20.1002 5.67226 19.6224 6.25004 19.2668C6.82782 18.9113 7.47226 18.7335 8.18337 18.7335C8.89448 18.7335 9.54449 18.9168 10.1334 19.2835C10.7223 19.6502 11.2056 20.1224 11.5834 20.7002H21.3834V7.3335H4.08337V20.7002ZM25.1167 24.6335C25.65 24.6335 26.1056 24.4446 26.4834 24.0668C26.8612 23.6891 27.05 23.2335 27.05 22.7002C27.05 22.1668 26.8612 21.7113 26.4834 21.3335C26.1056 20.9557 25.65 20.7668 25.1167 20.7668C24.5834 20.7668 24.1278 20.9557 23.75 21.3335C23.3723 21.7113 23.1834 22.1668 23.1834 22.7002C23.1834 23.2335 23.3723 23.6891 23.75 24.0668C24.1278 24.4446 24.5834 24.6335 25.1167 24.6335ZM23.3834 17.8335H29.5834L25.8834 12.9002H23.3834V17.8335Z" fill="#FFC107"/>
</g>
</svg>
