<svg width="24" height="24" viewBox="0 0 24 24" fill="none" xmlns="http://www.w3.org/2000/svg">
<rect width="24" height="24" rx="12" fill="#25D366"/>
<path fill-rule="evenodd" clip-rule="evenodd" d="M11.9959 18.4335H11.9932C10.9075 18.4331 9.84077 18.1607 8.89329 17.6439L5.4545 18.546L6.37478 15.1846C5.8071 14.2008 5.5084 13.0848 5.50888 11.9416C5.51031 8.36494 8.42032 5.45508 11.9958 5.45508C13.7312 5.45583 15.3599 6.13138 16.5846 7.35754C17.8093 8.58363 18.4834 10.2134 18.4827 11.9467C18.4813 15.5225 15.5724 18.432 11.9959 18.4335ZM9.05289 16.4696L9.24977 16.5865C10.0776 17.0777 11.0265 17.3376 11.994 17.338H11.9962C14.9679 17.338 17.3866 14.9193 17.3877 11.9463C17.3883 10.5057 16.828 9.15108 15.8101 8.13194C14.7921 7.11281 13.4384 6.55128 11.9983 6.55078C9.02428 6.55078 6.60557 8.96927 6.6044 11.942C6.60398 12.9608 6.88903 13.9529 7.42874 14.8113L7.55694 15.0153L7.01226 17.0049L9.05289 16.4696ZM15.0419 13.3432C15.155 13.3978 15.2313 13.4347 15.2639 13.4892C15.3044 13.5567 15.3044 13.8813 15.1694 14.2599C15.0343 14.6385 14.3868 14.9841 14.0753 15.0306C13.7961 15.0724 13.4427 15.0898 13.0545 14.9664C12.819 14.8917 12.5171 14.792 12.1304 14.625C10.6109 13.9688 9.58403 12.4961 9.38995 12.2177C9.37636 12.1982 9.36685 12.1846 9.36154 12.1775L9.36023 12.1758C9.27446 12.0613 8.69971 11.2945 8.69971 10.5008C8.69971 9.7542 9.06645 9.36287 9.23527 9.18274C9.24683 9.1704 9.25747 9.15905 9.26699 9.14864C9.41556 8.98637 9.59117 8.9458 9.69922 8.9458C9.80726 8.9458 9.91543 8.9468 10.0099 8.95154C10.0215 8.95213 10.0336 8.95206 10.0462 8.95198C10.1406 8.95143 10.2584 8.95074 10.3746 9.22978C10.4192 9.33716 10.4846 9.49636 10.5536 9.66426C10.6931 10.0038 10.8472 10.379 10.8743 10.4333C10.9148 10.5144 10.9418 10.609 10.8878 10.7173C10.8797 10.7335 10.8722 10.7488 10.865 10.7634C10.8244 10.8463 10.7946 10.9072 10.7257 10.9876C10.6986 11.0192 10.6707 11.0533 10.6427 11.0874C10.5869 11.1553 10.5311 11.2232 10.4826 11.2716C10.4014 11.3524 10.317 11.4401 10.4115 11.6024C10.5061 11.7647 10.8314 12.2954 11.3132 12.7252C11.8312 13.1872 12.2814 13.3825 12.5096 13.4815C12.5541 13.5008 12.5902 13.5165 12.6167 13.5297C12.7787 13.6109 12.8733 13.5973 12.9678 13.4892C13.0624 13.381 13.373 13.0158 13.481 12.8536C13.5891 12.6914 13.6972 12.7184 13.8457 12.7725C13.9943 12.8266 14.7912 13.2187 14.9533 13.2998C14.9849 13.3157 15.0145 13.33 15.0419 13.3432Z" fill="#FDFDFD"/>
</svg>
